<svg width="309" height="54" viewBox="0 0 309 54" fill="none" xmlns="http://www.w3.org/2000/svg">
<path d="M229.408 6.24243V46.4138H252.189V40.9807H236.387V28.9581H249.536V23.5248H236.387V11.6757H251.901V6.24243H229.408ZM283.511 40.9807H280.454V17.3402H260.442V19.8256C260.442 26.9351 259.98 36.1254 257.558 40.9807H255.424V53.0609H261.768V46.4138H277.167V53.0609H283.511V40.9807ZM273.591 40.9807H263.902C265.805 36.5878 266.324 28.6691 266.324 23.6404V22.7734H273.591V40.9807ZM308.653 26.5883C308.653 19.5366 305.078 16.8778 297.811 16.8778C293.255 16.8778 289.679 18.3228 287.603 19.5366V25.2589C289.448 23.8716 293.486 22.3688 297.004 22.3688C300.291 22.3688 301.79 23.5248 301.79 26.6461V28.2645H300.694C290.198 28.2645 285.527 31.7325 285.527 37.6282C285.527 43.524 289.102 46.8186 294.408 46.8186C298.445 46.8186 300.175 45.4889 301.502 44.1021H301.79C301.848 44.8533 302.079 45.8357 302.309 46.4138H309C308.769 44.0441 308.653 41.6744 308.653 39.3043V26.5883ZM301.79 39.4779C300.925 40.7495 299.311 41.79 296.888 41.79C294.004 41.79 292.563 40.0559 292.563 37.455C292.563 34.0446 294.927 32.8308 300.81 32.8308H301.79V39.4779Z" fill="#230F0A"/>
<path d="M215.91 40.8282C211.493 44.6292 205.729 46.9219 199.441 46.9219C186.25 46.9219 176.365 36.9641 176.365 25.5819C176.365 14.8787 185.121 6.13911 195.977 6.13911C206.222 6.13911 213.614 13.8812 213.614 22.2639C213.614 30.1215 207.254 36.4951 199.441 36.4951C192.292 36.4951 187.246 31.217 187.246 25.5819C187.246 20.5243 191.26 16.5658 195.98 16.5658C200.159 16.5658 202.737 19.5338 202.737 22.2639C202.737 24.6334 201.026 26.065 199.441 26.065C198.88 26.065 198.666 25.9494 198.441 25.8129C198.952 25.1724 199.205 24.3394 199.077 23.4714C198.823 21.7949 197.231 20.6364 195.52 20.8848C194.052 21.0983 193.12 22.0714 192.66 22.7924C192.138 23.6009 191.86 24.5739 191.86 25.5819C191.86 29.6035 195.705 32.204 199.441 32.204C204.897 32.2075 209 27.563 209 22.2639C209 15.7783 203.233 10.4267 195.98 10.4267C187.557 10.4267 180.983 17.3778 180.983 25.5819C180.983 34.8781 189.114 42.6307 199.444 42.6307C210.864 42.6307 219.881 33.3625 219.881 22.2604C219.881 10.3252 209.515 0 195.98 0C181.582 0 170.105 11.5712 170.105 25.5819C170.105 40.5411 182.989 53.0609 199.444 53.0609C207.315 53.0609 214.535 50.1805 220.045 45.4412L215.91 40.8282Z" fill="#230F0A"/>
<path d="M19.5972 46.4138H26.5511V6.24243H16.4364C6.2642 6.24243 0.919528 11.5023 0.919528 19.2476C0.919528 25.4323 3.85047 29.0737 9.08024 32.8308L0 46.4138H7.52854L17.6433 31.2123L14.1376 28.8425C9.8848 25.9525 7.8159 23.6982 7.8159 18.843C7.8159 14.5658 10.8044 11.6757 16.4939 11.6757H19.5972V46.4138ZM110.917 44.4485V38.8418C108.79 40.2871 105.227 41.5587 101.894 41.5587C96.8943 41.5587 94.9975 39.1886 94.7104 34.3335H111.204V30.6921C111.204 20.577 106.779 16.7622 99.9401 16.7622C91.6069 16.7622 87.6415 23.1781 87.6415 31.9637C87.6415 42.0788 92.5841 46.9918 101.319 46.9918C105.687 46.9918 108.905 45.8357 110.917 44.4485ZM153.674 46.9918C156.835 46.9918 159.077 46.4138 160.743 45.2001V39.5935C159.019 40.8071 156.95 41.5587 154.077 41.5587C149.192 41.5587 147.18 37.7438 147.18 31.7325C147.18 25.4323 149.651 22.1954 154.134 22.1954C156.778 22.1954 159.364 23.1203 160.743 23.9873V18.1494C159.307 17.3402 156.778 16.7622 153.387 16.7622C144.652 16.7622 140.111 23.0624 140.111 31.9059C140.111 41.6163 144.537 46.9918 153.674 46.9918ZM48.2748 17.3402V28.8425H39.137V17.3402H32.2981V46.4138H39.137V34.2757H48.2748V46.4138H55.1137V17.3402H48.2748ZM85.9751 40.9807H82.9289V17.3402H62.9871V19.8256C62.9871 26.9351 62.5274 36.1254 60.1136 40.9807H57.9869V53.0609H64.3088V46.4138H79.6532V53.0609H85.9751V40.9807ZM132.755 46.4138H140.514L129.537 30.7499L139.192 17.3402H132.296L122.641 30.7499V17.3402H115.802V46.4138H122.641V32.1371L132.755 46.4138ZM99.8252 22.1954C103.216 22.1954 104.25 25.0277 104.25 28.6691V29.2471H94.7104C94.8826 24.623 96.5495 22.1954 99.8252 22.1954ZM76.0899 40.9807H66.4351C68.3318 36.5878 68.8489 28.6691 68.8489 23.6404V22.7734H76.0899V40.9807Z" fill="#230F0A"/>
</svg>